<svg width="107" height="61" viewBox="0 0 107 61" fill="none" xmlns="http://www.w3.org/2000/svg">
<g filter="url(#filter0_d_15_2)">
<path d="M4.94727 37L14.4219 11.2305H19.6074L28.9414 37H24.0547L21.5059 29.7227H12.4883L9.92188 37H4.94727ZM13.6836 26.1719H20.293C18.1836 19.4102 17.0996 15.918 17.041 15.6953L13.6836 26.1719ZM38.0117 37.2637C36.6875 37.2637 35.5859 37.1113 34.707 36.8066C33.8398 36.4902 33.1543 35.9922 32.6504 35.3125C32.1465 34.6328 31.7949 33.8242 31.5957 32.8867C31.3965 31.9492 31.2969 30.7832 31.2969 29.3887V10.5625L35.9023 10.2637V29.3008C35.9023 31.0352 36.1074 32.2129 36.5176 32.834C36.9277 33.4434 37.7246 33.748 38.9082 33.748C39.4941 33.748 40.2383 33.6836 41.1406 33.5547L41.2637 36.8418C41.252 36.8418 41.1055 36.8711 40.8242 36.9297C40.5547 36.9883 40.291 37.0352 40.0332 37.0703C39.7871 37.1172 39.4707 37.1582 39.084 37.1934C38.6973 37.2402 38.3398 37.2637 38.0117 37.2637ZM51.8633 33.8711C53.4219 33.8711 54.5938 33.3027 55.3789 32.166C56.1641 31.0293 56.5566 29.4004 56.5566 27.2793C56.5566 25.1348 56.1641 23.5 55.3789 22.375C54.5938 21.25 53.4102 20.6875 51.8281 20.6875C50.2695 20.6875 49.0918 21.2559 48.2949 22.3926C47.5098 23.5176 47.1172 25.1523 47.1172 27.2969C47.1172 29.4062 47.5156 31.0293 48.3125 32.166C49.1094 33.3027 50.293 33.8711 51.8633 33.8711ZM51.7402 37.3691C48.8809 37.3691 46.6309 36.4434 44.9902 34.5918C43.3496 32.7402 42.5293 30.3027 42.5293 27.2793C42.5293 24.1621 43.3496 21.707 44.9902 19.9141C46.6309 18.1094 48.9453 17.207 51.9336 17.207C54.8164 17.207 57.0723 18.127 58.7012 19.9668C60.3418 21.7949 61.1621 24.2324 61.1621 27.2793C61.1621 30.3613 60.3359 32.8164 58.6836 34.6445C57.0312 36.4609 54.7168 37.3691 51.7402 37.3691ZM64.9238 37V10.5625L69.5293 10.2637V15.8359C69.5293 16.1055 69.5117 16.8555 69.4766 18.0859C69.4414 19.3047 69.4238 19.9258 69.4238 19.9492C70.959 18.1211 73.0215 17.207 75.6113 17.207C77.7676 17.207 79.4375 17.8281 80.6211 19.0703C81.8164 20.3008 82.4141 22.1992 82.4141 24.7656V37H77.8086V25.2754C77.8086 23.6934 77.5566 22.5332 77.0527 21.7949C76.5488 21.0566 75.6934 20.6875 74.4863 20.6875C73.4551 20.6875 72.541 20.9512 71.7441 21.4785C70.9473 21.9941 70.3496 22.6621 69.9512 23.4824C69.6699 24.5605 69.5293 25.9668 69.5293 27.7012V37H64.9238ZM92.0645 37.3691C90.2715 37.3691 88.8184 36.877 87.7051 35.8926C86.6035 34.8965 86.0527 33.4668 86.0527 31.6035C86.0527 29.5996 86.709 28.1172 88.0215 27.1562C89.334 26.1836 91.3145 25.5684 93.9629 25.3105C94.3262 25.2637 94.7188 25.2168 95.1406 25.1699C95.5625 25.123 96.0371 25.0762 96.5645 25.0293C97.0918 24.9824 97.5078 24.9414 97.8125 24.9062V23.8867C97.8125 22.7148 97.543 21.8652 97.0039 21.3379C96.4648 20.7988 95.6445 20.5293 94.543 20.5293C92.9727 20.5293 91.0332 20.9688 88.7246 21.8477C88.7129 21.8125 88.5195 21.2793 88.1445 20.248C87.7695 19.2168 87.5762 18.6895 87.5645 18.666C89.8379 17.6934 92.2988 17.207 94.9473 17.207C97.5488 17.207 99.4414 17.7754 100.625 18.9121C101.809 20.0371 102.4 21.8652 102.4 24.3965V37H98.9902C98.9785 36.9531 98.8496 36.5605 98.6035 35.8223C98.3574 35.084 98.2344 34.6914 98.2344 34.6445C97.2734 35.582 96.3301 36.2734 95.4043 36.7188C94.4902 37.1523 93.377 37.3691 92.0645 37.3691ZM93.3125 34.0996C94.3789 34.0996 95.3047 33.8477 96.0898 33.3438C96.8867 32.8281 97.4551 32.207 97.7949 31.4805V27.7539C97.7598 27.7539 97.4492 27.7773 96.8633 27.8242C96.2891 27.8711 95.9785 27.8945 95.9316 27.8945C94.0684 28.0586 92.7031 28.4102 91.8359 28.9492C90.9688 29.4883 90.5352 30.3555 90.5352 31.5508C90.5352 32.3711 90.7754 33.0039 91.2559 33.4492C91.7363 33.8828 92.4219 34.0996 93.3125 34.0996Z" fill="#534D4D"/>
</g>
<path d="M19.5001 40L22.5001 42.5L27.0001 46L31.5001 47.5L38.0001 49L42.5001 50H47.5001H52.0001L58.0001 49L62.0001 47.5L64.5001 46L67.5001 44.5L70.0001 42.5M70.0001 42.5L62.0001 41.5M70.0001 42.5L72.0001 49" stroke="#EB9C53" stroke-width="3" stroke-miterlimit="1.1547" stroke-linecap="round" stroke-linejoin="round"/>
<defs>
<filter id="filter0_d_15_2" x="0.947266" y="8.26367" width="105.453" height="35.1055" filterUnits="userSpaceOnUse" color-interpolation-filters="sRGB">
<feFlood flood-opacity="0" result="BackgroundImageFix"/>
<feColorMatrix in="SourceAlpha" type="matrix" values="0 0 0 0 0 0 0 0 0 0 0 0 0 0 0 0 0 0 127 0" result="hardAlpha"/>
<feOffset dy="2"/>
<feGaussianBlur stdDeviation="2"/>
<feComposite in2="hardAlpha" operator="out"/>
<feColorMatrix type="matrix" values="0 0 0 0 0 0 0 0 0 0 0 0 0 0 0 0 0 0 0.25 0"/>
<feBlend mode="normal" in2="BackgroundImageFix" result="effect1_dropShadow_15_2"/>
<feBlend mode="normal" in="SourceGraphic" in2="effect1_dropShadow_15_2" result="shape"/>
</filter>
</defs>
</svg>
