<svg width="107" height="61" viewBox="0 0 107 61" fill="none" xmlns="http://www.w3.org/2000/svg">
<g filter="url(#filter0_d_9_3)">
<path d="M4.9472 37L14.4218 11.2305H19.6074L28.9413 37H24.0546L21.5058 29.7227H12.4882L9.92181 37H4.9472ZM13.6835 26.1719H20.2929C18.1835 19.4102 17.0995 15.918 17.041 15.6953L13.6835 26.1719ZM38.0117 37.2637C36.6874 37.2637 35.5859 37.1113 34.707 36.8066C33.8398 36.4902 33.1542 35.9922 32.6503 35.3125C32.1464 34.6328 31.7949 33.8242 31.5956 32.8867C31.3964 31.9492 31.2968 30.7832 31.2968 29.3887V10.5625L35.9023 10.2637V29.3008C35.9023 31.0352 36.1074 32.2129 36.5175 32.834C36.9277 33.4434 37.7245 33.748 38.9081 33.748C39.4941 33.748 40.2382 33.6836 41.1406 33.5547L41.2636 36.8418C41.2519 36.8418 41.1054 36.8711 40.8242 36.9297C40.5546 36.9883 40.291 37.0352 40.0331 37.0703C39.787 37.1172 39.4706 37.1582 39.0839 37.1934C38.6972 37.2402 38.3398 37.2637 38.0117 37.2637ZM51.8632 33.8711C53.4218 33.8711 54.5937 33.3027 55.3788 32.166C56.164 31.0293 56.5566 29.4004 56.5566 27.2793C56.5566 25.1348 56.164 23.5 55.3788 22.375C54.5937 21.25 53.4101 20.6875 51.8281 20.6875C50.2695 20.6875 49.0917 21.2559 48.2949 22.3926C47.5097 23.5176 47.1171 25.1523 47.1171 27.2969C47.1171 29.4062 47.5156 31.0293 48.3124 32.166C49.1093 33.3027 50.2929 33.8711 51.8632 33.8711ZM51.7402 37.3691C48.8808 37.3691 46.6308 36.4434 44.9902 34.5918C43.3495 32.7402 42.5292 30.3027 42.5292 27.2793C42.5292 24.1621 43.3495 21.707 44.9902 19.9141C46.6308 18.1094 48.9453 17.207 51.9335 17.207C54.8163 17.207 57.0722 18.127 58.7011 19.9668C60.3417 21.7949 61.162 24.2324 61.162 27.2793C61.162 30.3613 60.3359 32.8164 58.6835 34.6445C57.0312 36.4609 54.7167 37.3691 51.7402 37.3691ZM64.9238 37V10.5625L69.5292 10.2637V15.8359C69.5292 16.1055 69.5117 16.8555 69.4765 18.0859C69.4413 19.3047 69.4238 19.9258 69.4238 19.9492C70.9589 18.1211 73.0214 17.207 75.6113 17.207C77.7675 17.207 79.4374 17.8281 80.621 19.0703C81.8163 20.3008 82.414 22.1992 82.414 24.7656V37H77.8085V25.2754C77.8085 23.6934 77.5566 22.5332 77.0527 21.7949C76.5488 21.0566 75.6933 20.6875 74.4863 20.6875C73.455 20.6875 72.541 20.9512 71.7441 21.4785C70.9472 21.9941 70.3495 22.6621 69.9511 23.4824C69.6699 24.5605 69.5292 25.9668 69.5292 27.7012V37H64.9238ZM92.0644 37.3691C90.2714 37.3691 88.8183 36.877 87.705 35.8926C86.6035 34.8965 86.0527 33.4668 86.0527 31.6035C86.0527 29.5996 86.7089 28.1172 88.0214 27.1562C89.3339 26.1836 91.3144 25.5684 93.9628 25.3105C94.3261 25.2637 94.7187 25.2168 95.1406 25.1699C95.5624 25.123 96.037 25.0762 96.5644 25.0293C97.0917 24.9824 97.5078 24.9414 97.8124 24.9062V23.8867C97.8124 22.7148 97.5429 21.8652 97.0038 21.3379C96.4648 20.7988 95.6445 20.5293 94.5429 20.5293C92.9726 20.5293 91.0331 20.9688 88.7245 21.8477C88.7128 21.8125 88.5195 21.2793 88.1445 20.248C87.7695 19.2168 87.5761 18.6895 87.5644 18.666C89.8378 17.6934 92.2988 17.207 94.9472 17.207C97.5488 17.207 99.4413 17.7754 100.625 18.9121C101.809 20.0371 102.4 21.8652 102.4 24.3965V37H98.9902C98.9785 36.9531 98.8495 36.5605 98.6035 35.8223C98.3574 35.084 98.2343 34.6914 98.2343 34.6445C97.2734 35.582 96.33 36.2734 95.4042 36.7188C94.4902 37.1523 93.3769 37.3691 92.0644 37.3691ZM93.3124 34.0996C94.3788 34.0996 95.3046 33.8477 96.0898 33.3438C96.8867 32.8281 97.455 32.207 97.7949 31.4805V27.7539C97.7597 27.7539 97.4492 27.7773 96.8632 27.8242C96.289 27.8711 95.9785 27.8945 95.9316 27.8945C94.0683 28.0586 92.7031 28.4102 91.8359 28.9492C90.9687 29.4883 90.5351 30.3555 90.5351 31.5508C90.5351 32.3711 90.7753 33.0039 91.2558 33.4492C91.7363 33.8828 92.4218 34.0996 93.3124 34.0996Z" fill="white"/>
</g>
<path d="M19.5 40L22.5 42.5L27 46L31.5 47.5L38 49L42.5 50H47.5H52L58 49L62 47.5L64.5 46L67.5 44.5L70 42.5M70 42.5L62 41.5M70 42.5L72 49" stroke="#EB9C53" stroke-width="3" stroke-miterlimit="1.1547" stroke-linecap="round" stroke-linejoin="round"/>
<defs>
<filter id="filter0_d_9_3" x="0.947205" y="8.26367" width="105.453" height="35.1055" filterUnits="userSpaceOnUse" color-interpolation-filters="sRGB">
<feFlood flood-opacity="0" result="BackgroundImageFix"/>
<feColorMatrix in="SourceAlpha" type="matrix" values="0 0 0 0 0 0 0 0 0 0 0 0 0 0 0 0 0 0 127 0" result="hardAlpha"/>
<feOffset dy="2"/>
<feGaussianBlur stdDeviation="2"/>
<feComposite in2="hardAlpha" operator="out"/>
<feColorMatrix type="matrix" values="0 0 0 0 0 0 0 0 0 0 0 0 0 0 0 0 0 0 0.25 0"/>
<feBlend mode="normal" in2="BackgroundImageFix" result="effect1_dropShadow_9_3"/>
<feBlend mode="normal" in="SourceGraphic" in2="effect1_dropShadow_9_3" result="shape"/>
</filter>
</defs>
</svg>
